<?xml version="1.0" encoding="utf-8"?>
<!-- Created by sK1 2.0rc4 (https://sk1project.net/) -->
<svg xmlns="http://www.w3.org/2000/svg" height="256.0pt" viewBox="0 0 256.0 256.0" width="256.0pt" version="1.1" xmlns:xlink="http://www.w3.org/1999/xlink" id="de37fc62-99e0-11eb-a988-309c233effb0">

<g>
	<path style="stroke-width:10.0;stroke:#47433c;fill-rule:evenodd;stroke-miterlimit:10.433;fill:#ffffff;" d="M 14.1732,241.8268 L 14.1732,15.0551 240.9449,15.0551 240.9449,241.8268 14.1732,241.8268 Z" />
	<g>
		<g>
			<path style="fill-rule:evenodd;fill:#56544c;" d="M 75.7378,103.0472 C 73.652,104.376 71.4782,105.4094 69.2162,106.1476 66.9835,106.8489 64.6481,107.1811 62.2245,107.1811 54.8951,107.1811 49.0932,104.6528 44.8336,99.5777 40.5593,94.4658 38.4295,87.5452 38.4295,78.8346 38.4295,70.1239 40.5593,63.2403 44.8336,58.1653 49.0932,53.0533 54.8951,50.4881 62.2245,50.4881 64.6481,50.4881 66.9835,50.8387 69.2162,51.5215 71.4782,52.2228 73.652,53.2563 75.7378,54.6219 L 75.7378,65.9163 C 73.652,64.1446 71.5957,62.8712 69.5687,62.0777 67.527,61.2472 65.3678,60.8227 63.1058,60.8227 59.0665,60.8227 55.8939,62.4283 53.5878,65.621 51.2671,68.8321 50.1214,73.2243 50.1214,78.8346 50.1214,84.4448 51.2671,88.8555 53.5878,92.0482 55.8939,95.2593 59.0665,96.8464 63.1058,96.8464 65.3678,96.8464 67.527,96.4404 69.5687,95.5915 71.5957,94.761 73.652,93.4877 75.7378,91.7529 Z" />
			<path style="fill-rule:evenodd;fill:#56544c;" d="M 86.0783,50.4881 L 97.4177,50.4881 97.4177,72.7814 114.1036,72.7814 114.1036,50.4881 125.3842,50.4881 125.3842,107.1811 114.1036,107.1811 114.1036,83.559 97.4177,83.559 97.4177,107.1811 86.0783,107.1811 Z" />
			<path style="fill-rule:evenodd;fill:#56544c;" d="M 161.5762,97.7323 L 143.8915,97.7323 141.1301,107.1811 129.7319,107.1811 146.0066,50.4881 159.4611,50.4881 175.7357,107.1811 164.3376,107.1811 Z M 146.7116,87.4714 L 158.756,87.4714 152.7632,64.2184 Z" />
			<path style="fill-rule:evenodd;fill:#56544c;" d="M 196.1818,78.3917 C 198.5319,78.3917 200.2064,77.7088 201.2346,76.3247 202.2921,74.9591 202.8209,72.6892 202.8209,69.5334 202.8209,66.433 202.2921,64.2184 201.2346,62.8897 200.2064,61.524 198.5319,60.8227 196.1818,60.8227 L 191.4228,60.8227 191.4228,78.3917 Z M 191.4228,88.2834 L 191.4228,107.1811 180.0834,107.1811 180.0834,50.4881 197.3569,50.4881 C 203.1441,50.4881 207.3743,51.8537 210.0476,54.5481 212.7502,57.261 214.1015,61.5978 214.1015,67.5403 214.1015,71.5819 213.3965,74.9037 211.9864,77.5058 210.6057,80.1264 208.52,82.0642 205.6998,83.3376 207.2274,83.7436 208.5934,84.6663 209.8125,86.1427 211.061,87.5821 212.3095,89.7414 213.5727,92.6388 L 219.6831,107.1811 207.6387,107.1811 202.2921,94.7795 C 201.2346,92.2697 200.1329,90.5718 199.002,89.686 197.9003,88.7633 196.4315,88.2834 194.5955,88.2834 Z" />
		</g>
	</g>
	<g>
		<g>
			<path style="fill-rule:evenodd;fill:#56544c;" d="M 96.7499,200.5806 C 92.9032,202.5321 88.8962,203.9854 84.7288,204.9819 80.6016,205.9369 76.3541,206.3937 71.9865,206.3937 61.9889,206.3937 54.075,203.5494 48.2648,197.8402 42.4346,192.0894 39.5295,184.3041 39.5295,174.5049 39.5295,164.602 42.4947,156.8166 48.4251,151.1697 54.3555,145.4812 62.4698,142.6162 72.7879,142.6162 76.7949,142.6162 80.6016,143.0106 84.248,143.7788 87.8744,144.5677 91.3204,145.7303 94.5861,147.2666 L 94.5861,159.391 C 91.2202,157.6886 87.8744,156.4014 84.5686,155.571 81.3028,154.699 78.0171,154.2423 74.7113,154.2423 68.5605,154.2423 63.8121,155.9862 60.4462,159.474 57.1204,162.9618 55.4775,167.986 55.4775,174.5049 55.4775,180.9823 57.0803,186.0065 60.2859,189.5358 63.4916,193.0236 68.0596,194.7676 73.99,194.7676 75.5928,194.7676 77.0554,194.6638 78.3977,194.4354 79.7802,194.1655 81.0424,193.8126 82.1643,193.3558 L 82.1643,179.9858 72.7077,179.9858 72.7077,169.1901 96.7499,169.1901 Z" />
			<path style="fill-rule:evenodd;fill:#56544c;" d="M 109.6526,142.6162 L 151.3257,142.6162 151.3257,154.7405 125.1197,154.7405 125.1197,167.6953 149.7229,167.6953 149.7229,179.8197 125.1197,179.8197 125.1197,194.2693 152.2073,194.2693 152.2073,206.3937 109.6526,206.3937 Z" />
			<path style="fill-rule:evenodd;fill:#56544c;" d="M 166.0716,142.6162 L 183.3019,142.6162 205.1001,186.3802 205.1001,142.6162 219.6857,142.6162 219.6857,206.3937 202.4555,206.3937 180.7374,162.6297 180.7374,206.3937 166.0716,206.3937 Z" />
		</g>
	</g>
</g>
</svg>